<?xml version="1.0" encoding="UTF-8" standalone="no"?>
<svg
   xmlns:dc="http://purl.org/dc/elements/1.1/"
   xmlns:cc="http://creativecommons.org/ns#"
   xmlns:rdf="http://www.w3.org/1999/02/22-rdf-syntax-ns#"
   xmlns:svg="http://www.w3.org/2000/svg"
   xmlns="http://www.w3.org/2000/svg"
   xmlns:sodipodi="http://sodipodi.sourceforge.net/DTD/sodipodi-0.dtd"
   xmlns:inkscape="http://www.inkscape.org/namespaces/inkscape"
   version="1.1"
   id="Layer_1"
   x="0px"
   y="0px"
   width="1000"
   height="202.89688"
   viewBox="0 0 999.99998 202.89688"
   enable-background="new 0 0 999.999 903.492"
   xml:space="preserve"
   sodipodi:docname="Roblox_Studio_wordmark (2017).svg"
   inkscape:version="1.0.2 (e86c870879, 2021-01-15)"><metadata
   id="metadata555"><rdf:RDF><cc:Work
       rdf:about=""><dc:format>image/svg+xml</dc:format><dc:type
         rdf:resource="http://purl.org/dc/dcmitype/StillImage" /><dc:title></dc:title></cc:Work></rdf:RDF></metadata><defs
   id="defs553" /><sodipodi:namedview
   pagecolor="#ffffff"
   bordercolor="#666666"
   borderopacity="1"
   objecttolerance="10"
   gridtolerance="10"
   guidetolerance="10"
   inkscape:pageopacity="0"
   inkscape:pageshadow="2"
   inkscape:window-width="1366"
   inkscape:window-height="705"
   id="namedview551"
   showgrid="false"
   inkscape:zoom="0.54739034"
   inkscape:cx="332.90749"
   inkscape:cy="52.062463"
   inkscape:window-x="-8"
   inkscape:window-y="-8"
   inkscape:window-maximized="1"
   inkscape:current-layer="Layer_1"
   inkscape:document-rotation="0" />

<g
   id="g874"
   transform="scale(1.020953)"><path
     id="path865"
     style="fill:#00a1ff;fill-opacity:1;stroke:#00a1ff;stroke-width:0.443925px;stroke-linecap:butt;stroke-linejoin:miter;stroke-opacity:1"
     d="m 48.404615,0.34846808 47.74195,81.21409992 25.060965,6.71524 -6.36928,25.033252 48.09482,80.77364 39.37932,-154.040442 z M 39.650085,4.6481281 0.26990567,158.68857 154.17767,198.38436 l -47.74193,-81.2141 -25.060975,-6.71523 6.36929,-25.033252 z" /><path
     d="m 355.55825,175.1522 c 35.80234,0 59.60037,-17.90117 59.60037,-48.01726 v -0.4212 c 0,-27.588862 -21.0602,-38.540172 -54.96712,-45.911242 -20.4284,-4.63324 -25.48285,-7.58167 -25.48285,-14.32093 v -0.42121 c 0,-5.26505 4.84385,-9.47709 14.74214,-9.47709 13.05733,0 27.79947,5.05445 41.278,14.53154 l 20.42839,-28.85247 c -16.00575,-12.84673 -35.59174,-19.58599 -60.65338,-19.58599 -35.38113,0 -57.07314,19.79659 -57.07314,47.17485 v 0.4212 c 0,30.326692 24.21923,39.171982 55.59893,46.332442 20.00719,4.63325 24.85104,8.00288 24.85104,14.11034 v 0.4212 c 0,6.31806 -5.89686,10.1089 -16.84817,10.1089 -17.05876,0 -33.27511,-6.10746 -47.80665,-17.69057 l -22.74502,27.16766 c 18.11178,16.21635 42.96281,24.42983 69.07746,24.42983 z"
     style="font-style:normal;font-variant:normal;font-weight:900;font-stretch:normal;font-size:210.602px;font-family:Gotham;-inkscape-font-specification:'Gotham Heavy';letter-spacing:-0.44px;fill:#00a1ff;fill-opacity:1;stroke-width:3.97988"
     id="path848" /><path
     d="m 474.17189,174.9416 c 11.1619,0 20.63899,-2.52722 27.79946,-6.52866 v -31.3797 c -4.84384,2.31662 -9.89829,3.79083 -15.16334,3.79083 -7.37107,0 -10.95131,-3.36963 -10.95131,-11.3725 V 90.911398 h 26.53586 V 58.689288 H 475.8567 v -28.85247 h -40.01438 v 28.85247 h -13.47853 v 32.22211 h 13.47853 v 46.332442 c 0,27.16766 14.32094,37.69776 38.32957,37.69776 z"
     style="font-style:normal;font-variant:normal;font-weight:900;font-stretch:normal;font-size:210.602px;font-family:Gotham;-inkscape-font-specification:'Gotham Heavy';letter-spacing:-0.44px;fill:#00a1ff;fill-opacity:1;stroke-width:3.97988"
     id="path850" /><path
     d="m 558.12956,175.1522 c 16.21636,0 26.74646,-8.63468 34.11753,-18.11177 v 15.58455 h 40.01438 V 58.689288 h -40.01438 v 61.706392 c 0,12.42552 -7.16047,19.16478 -16.63756,19.16478 -9.68769,0 -16.21635,-6.73926 -16.21635,-19.16478 V 58.689288 H 519.37879 V 133.2424 c 0,25.90405 14.53154,41.9098 38.75077,41.9098 z"
     style="font-style:normal;font-variant:normal;font-weight:900;font-stretch:normal;font-size:210.602px;font-family:Gotham;-inkscape-font-specification:'Gotham Heavy';letter-spacing:-0.44px;fill:#00a1ff;fill-opacity:1;stroke-width:3.97988"
     id="path852" /><path
     d="m 698.72467,175.1522 c 17.05876,0 26.95705,-8.21348 34.74933,-17.69057 v 15.16335 h 40.01438 V 18.885508 H 733.474 v 53.70351 c -7.58167,-8.63468 -17.69057,-16.42695 -34.95993,-16.42695 -26.95706,0 -50.12328,22.53441 -50.12328,59.600372 v 0.4212 c 0,36.43415 23.37682,58.96856 50.33388,58.96856 z m 12.21491,-33.48572 c -12.84672,0 -23.37682,-10.7407 -23.37682,-25.90404 v -0.42121 c 0,-15.16334 10.5301,-25.693442 23.37682,-25.693442 12.84673,0 23.16622,10.740702 23.16622,25.693442 v 0.42121 c 0,15.16334 -10.31949,25.90404 -23.16622,25.90404 z"
     style="font-style:normal;font-variant:normal;font-weight:900;font-stretch:normal;font-size:210.602px;font-family:Gotham;-inkscape-font-specification:'Gotham Heavy';letter-spacing:-0.44px;fill:#00a1ff;fill-opacity:1;stroke-width:3.97988"
     id="path854" /><path
     d="m 794.72979,48.369788 h 41.69919 v -29.48428 h -41.69919 z m 0.8424,124.255192 h 40.01438 V 58.689288 h -40.01438 z"
     style="font-style:normal;font-variant:normal;font-weight:900;font-stretch:normal;font-size:210.602px;font-family:Gotham;-inkscape-font-specification:'Gotham Heavy';letter-spacing:-0.44px;fill:#00a1ff;fill-opacity:1;stroke-width:3.97988"
     id="path856" /><path
     d="m 916.29635,175.3628 c 36.64474,0 63.18064,-27.16766 63.18064,-59.60036 v -0.42121 c 0,-32.432712 -26.3253,-59.179162 -62.75944,-59.179162 -36.64475,0 -63.1806,27.16766 -63.1806,59.600372 v 0.4212 c 0,32.43271 26.32525,59.17916 62.7594,59.17916 z m 0.4212,-33.90692 c -14.11033,0 -24.21923,-11.79371 -24.21923,-25.69344 v -0.42121 c 0,-13.68913 9.26649,-25.272242 23.79803,-25.272242 14.11034,0 24.21924,11.793712 24.21924,25.693452 v 0.4212 c 0,13.68913 -9.2665,25.27224 -23.79804,25.27224 z"
     style="font-style:normal;font-variant:normal;font-weight:900;font-stretch:normal;font-size:210.602px;font-family:Gotham;-inkscape-font-specification:'Gotham Heavy';letter-spacing:-0.44px;fill:#00a1ff;fill-opacity:1;stroke-width:3.97988"
     id="path858" /></g></svg>
